<svg width="1137" height="2569" viewBox="0 0 1137 2569" fill="none" xmlns="http://www.w3.org/2000/svg">
<path d="M14 6C77.3333 162.333 234.9 445.2 358.5 326C444.5 243.061 315 160.5 602.5 109C832.5 67.8 891 249.5 795 373C748.36 433 523.9 438.8 545.5 532C572.5 648.5 787.5 622 811.5 727.5C835.5 833 685.768 837.475 735.5 1044.5C778.5 1223.5 860 1269.83 1014.5 1242.5C1153 1218 1174.5 937.355 971.5 1001C507.1 1146.6 526.167 1345 561.5 1424.5C579.5 1474.17 635.1 1603.9 713.5 1725.5C811.5 1877.5 939 2115.5 735.5 2252.5C532 2389.5 578.5 2025 348.5 1970.5C118.5 1916 88.5 2093.5 157 2252.5C225.5 2411.5 562.5 2329 455.5 2452.5C369.9 2551.3 503.833 2559.67 581.5 2551.5" stroke="#EE7272" stroke-width="30"/>
</svg>
